<?xml version="1.0" encoding="utf-8"?>
<!-- Generator: Adobe Illustrator 21.0.2, SVG Export Plug-In . SVG Version: 6.00 Build 0)  -->
<svg version="1.1" id="Layer_1" xmlns="http://www.w3.org/2000/svg" xmlns:xlink="http://www.w3.org/1999/xlink" x="0px" y="0px"
	 viewBox="0 0 841.9 595.3" style="enable-background:new 0 0 841.9 595.3;" xml:space="preserve">
<style type="text/css">
	.st0{fill:#1F5404;}
</style>
<path class="st0" d="M621.5,454.6c0,4.7-1.7,8.8-5.2,12.3c-3.5,3.5-7.5,5.2-12.3,5.2H478.2c0.2,3.1,0.7,11,1.6,23.8
	s1.4,22.7,1.4,29.6c0,4.5-1.6,8.4-4.9,11.6c-3.3,3.2-7.2,4.8-11.7,4.8h-87.2c-4.5,0-8.4-1.6-11.7-4.8c-3.3-3.2-4.9-7-4.9-11.6
	c0-6.9,0.5-16.8,1.4-29.6s1.5-20.8,1.6-23.8H237.8c-4.7,0-8.8-1.7-12.3-5.2c-3.5-3.5-5.2-7.5-5.2-12.3s1.7-8.8,5.2-12.3l109.6-109.8
	h-62.4c-4.7,0-8.8-1.7-12.3-5.2c-3.5-3.5-5.2-7.5-5.2-12.3s1.7-8.8,5.2-12.3L370,193h-53.7c-4.7,0-8.8-1.7-12.3-5.2
	c-3.5-3.5-5.2-7.5-5.2-12.3c0-4.7,1.7-8.8,5.2-12.3L408.7,58.7c3.5-3.5,7.5-5.2,12.3-5.2s8.8,1.7,12.3,5.2l104.6,104.6
	c3.5,3.5,5.2,7.5,5.2,12.3c0,4.7-1.7,8.8-5.2,12.3c-3.5,3.5-7.5,5.2-12.3,5.2h-53.7l109.6,109.8c3.5,3.5,5.2,7.5,5.2,12.3
	s-1.7,8.8-5.2,12.3c-3.5,3.5-7.5,5.2-12.3,5.2h-62.4l109.6,109.8C619.8,445.8,621.5,449.9,621.5,454.6z"/>
</svg>
