<svg xmlns="http://www.w3.org/2000/svg"><symbol viewBox="0 0 2048 2048" id="icon-arrow-down"><title>arrow-down</title><path d="M1803 960q0 53-37 90l-651 652q-39 37-91 37-53 0-90-37l-651-652q-38-36-38-90 0-53 38-91l74-75q39-37 91-37 53 0 90 37l294 294V384q0-52 38-90t90-38h128q52 0 90 38t38 90v704l294-294q37-37 90-37 52 0 91 37l75 75q37 39 37 91z"/></symbol><symbol viewBox="0 0 2048 2048" id="icon-arrow-left"><title>arrow-left</title><path d="M1792 1024v128q0 53-32.5 90.5T1675 1280H971l293 294q38 36 38 90t-38 90l-75 76q-37 37-90 37-52 0-91-37l-651-652q-37-37-37-90 0-52 37-91l651-650q38-38 91-38 52 0 90 38l75 74q38 38 38 91t-38 91L971 896h704q52 0 84.5 37.5t32.5 90.5z"/></symbol><symbol viewBox="0 0 2048 2048" id="icon-arrow-right"><title>arrow-right</title><path d="M1728 1088q0 54-37 91l-651 651q-39 37-91 37-51 0-90-37l-75-75q-38-38-38-91t38-91l293-293H373q-52 0-84.5-37.5T256 1152v-128q0-53 32.5-90.5T373 896h704L784 602q-38-36-38-90t38-90l75-75q38-38 90-38 53 0 91 38l651 651q37 35 37 90z"/></symbol><symbol viewBox="0 0 2048 2048" id="icon-arrow-up"><title>arrow-up</title><path d="M1803 1099q0 51-37 90l-75 75q-38 38-91 38-54 0-90-38l-294-293v704q0 52-37.5 84.5T1088 1792H960q-53 0-90.5-32.5T832 1675V971l-294 293q-36 38-90 38t-90-38l-75-75q-38-38-38-90 0-53 38-91l651-651q35-37 90-37 54 0 91 37l651 651q37 39 37 91z"/></symbol><symbol viewBox="0 0 2048 2048" id="icon-arrows-h"><title>arrows-h</title><path d="M1920 1024q0 26-19 45l-256 256q-19 19-45 19t-45-19-19-45v-128H512v128q0 26-19 45t-45 19-45-19l-256-256q-19-19-19-45t19-45l256-256q19-19 45-19t45 19 19 45v128h1024V768q0-26 19-45t45-19 45 19l256 256q19 19 19 45z"/></symbol><symbol viewBox="0 0 2048 2048" id="icon-arrows-v"><title>arrows-v</title><path d="M1344 448q0 26-19 45t-45 19h-128v1024h128q26 0 45 19t19 45-19 45l-256 256q-19 19-45 19t-45-19l-256-256q-19-19-19-45t19-45 45-19h128V512H768q-26 0-45-19t-19-45 19-45l256-256q19-19 45-19t45 19l256 256q19 19 19 45z"/></symbol><symbol viewBox="0 0 2048 2048" id="icon-arrows"><title>arrows</title><path d="M1920 1024q0 26-19 45l-256 256q-19 19-45 19t-45-19-19-45v-128h-384v384h128q26 0 45 19t19 45-19 45l-256 256q-19 19-45 19t-45-19l-256-256q-19-19-19-45t19-45 45-19h128v-384H512v128q0 26-19 45t-45 19-45-19l-256-256q-19-19-19-45t19-45l256-256q19-19 45-19t45 19 19 45v128h384V512H768q-26 0-45-19t-19-45 19-45l256-256q19-19 45-19t45 19l256 256q19 19 19 45t-19 45-45 19h-128v384h384V768q0-26 19-45t45-19 45 19l256 256q19 19 19 45z"/></symbol><symbol viewBox="0 0 2048 2048" id="icon-caret-down"><title>caret-down</title><path d="M1536 832q0 26-19 45l-448 448q-19 19-45 19t-45-19L531 877q-19-19-19-45t19-45 45-19h896q26 0 45 19t19 45z"/></symbol><symbol viewBox="0 0 2048 2048" id="icon-caret-left"><title>caret-left</title><path d="M1344 576v896q0 26-19 45t-45 19-45-19l-448-448q-19-19-19-45t19-45l448-448q19-19 45-19t45 19 19 45z"/></symbol><symbol viewBox="0 0 2048 2048" id="icon-caret-right"><title>caret-right</title><path d="M1280 1024q0 26-19 45l-448 448q-19 19-45 19t-45-19-19-45V576q0-26 19-45t45-19 45 19l448 448q19 19 19 45z"/></symbol><symbol viewBox="0 0 2048 2048" id="icon-caret-square-o-down"><title>caret-square-o-down</title><path d="M1401 803q18 35-5 66l-320 448q-19 27-52 27t-52-27L652 869q-23-31-5-66 17-35 57-35h640q40 0 57 35zm135 701V544q0-13-9.5-22.5T1504 512H544q-13 0-22.5 9.5T512 544v960q0 13 9.5 22.5t22.5 9.5h960q13 0 22.5-9.5t9.5-22.5zm256-960v960q0 119-84.5 203.5T1504 1792H544q-119 0-203.5-84.5T256 1504V544q0-119 84.5-203.5T544 256h960q119 0 203.5 84.5T1792 544z"/></symbol><symbol viewBox="0 0 2048 2048" id="icon-caret-square-o-left"><title>caret-square-o-left</title><path d="M1280 704v640q0 26-19 45t-45 19q-20 0-37-12l-448-320q-27-19-27-52t27-52l448-320q17-12 37-12 26 0 45 19t19 45zm256 800V544q0-13-9.5-22.5T1504 512H544q-13 0-22.5 9.5T512 544v960q0 13 9.5 22.5t22.5 9.5h960q13 0 22.5-9.5t9.5-22.5zm256-960v960q0 119-84.5 203.5T1504 1792H544q-119 0-203.5-84.5T256 1504V544q0-119 84.5-203.5T544 256h960q119 0 203.5 84.5T1792 544z"/></symbol><symbol viewBox="0 0 2048 2048" id="icon-caret-square-o-right"><title>caret-square-o-right</title><path d="M1344 1024q0 33-27 52l-448 320q-31 23-66 5-35-17-35-57V704q0-40 35-57 35-18 66 5l448 320q27 19 27 52zm192 480V544q0-14-9-23t-23-9H544q-14 0-23 9t-9 23v960q0 14 9 23t23 9h960q14 0 23-9t9-23zm256-960v960q0 119-84.5 203.5T1504 1792H544q-119 0-203.5-84.5T256 1504V544q0-119 84.5-203.5T544 256h960q119 0 203.5 84.5T1792 544z"/></symbol><symbol viewBox="0 0 2048 2048" id="icon-caret-square-o-up"><title>caret-square-o-up</title><path d="M1401 1245q-17 35-57 35H704q-40 0-57-35-18-35 5-66l320-448q19-27 52-27t52 27l320 448q23 31 5 66zm135 259V544q0-13-9.5-22.5T1504 512H544q-13 0-22.5 9.5T512 544v960q0 13 9.5 22.5t22.5 9.5h960q13 0 22.5-9.5t9.5-22.5zm256-960v960q0 119-84.5 203.5T1504 1792H544q-119 0-203.5-84.5T256 1504V544q0-119 84.5-203.5T544 256h960q119 0 203.5 84.5T1792 544z"/></symbol><symbol viewBox="0 0 2048 2048" id="icon-caret-up"><title>caret-up</title><path d="M1536 1344q0 26-19 45t-45 19H576q-26 0-45-19t-19-45 19-45l448-448q19-19 45-19t45 19l448 448q19 19 19 45z"/></symbol><symbol viewBox="0 0 2048 2048" id="icon-check"><title>check</title><path d="M1799 694q0 40-28 68l-724 724-136 136q-28 28-68 28t-68-28l-136-136-362-362q-28-28-28-68t28-68l136-136q28-28 68-28t68 28l294 295 656-657q28-28 68-28t68 28l136 136q28 28 28 68z"/></symbol><symbol viewBox="0 0 2048 2048" id="icon-circle-o-notch"><title>circle-o-notch</title><path d="M1920 1024q0 182-71 348t-191 286-286 191-348 71-348-71-286-191-191-286-71-348q0-222 101-414.5t276.5-317T896 137v260q-221 45-366.5 221T384 1024q0 130 51 248.5t136.5 204 204 136.5 248.5 51 248.5-51 204-136.5 136.5-204 51-248.5q0-230-145.5-406T1152 397V137q215 31 390.5 155.5t276.5 317 101 414.5z"/></symbol><symbol viewBox="0 0 2048 2048" id="icon-compress"><title>compress</title><path d="M1024 1088v448q0 26-19 45t-45 19-45-19l-144-144-332 332q-10 10-23 10t-23-10l-114-114q-10-10-10-23t10-23l332-332-144-144q-19-19-19-45t19-45 45-19h448q26 0 45 19t19 45zm755-672q0 13-10 23l-332 332 144 144q19 19 19 45t-19 45-45 19h-448q-26 0-45-19t-19-45V512q0-26 19-45t45-19 45 19l144 144 332-332q10-10 23-10t23 10l114 114q10 10 10 23z"/></symbol><symbol viewBox="0 0 2048 2048" id="icon-crop"><title>crop</title><path d="M749 1408h595V813zm-45-45l595-595H704v595zm1152 77v192q0 14-9 23t-23 9h-224v224q0 14-9 23t-23 9h-192q-14 0-23-9t-9-23v-224H480q-14 0-23-9t-9-23V768H224q-14 0-23-9t-9-23V544q0-14 9-23t23-9h224V288q0-14 9-23t23-9h192q14 0 23 9t9 23v224h851l246-247q10-9 23-9t23 9q9 10 9 23t-9 23l-247 246v851h224q14 0 23 9t9 23z"/></symbol><symbol viewBox="0 0 2048 2048" id="icon-download"><title>download</title><path d="M1472 1472q0-26-19-45t-45-19-45 19-19 45 19 45 45 19 45-19 19-45zm256 0q0-26-19-45t-45-19-45 19-19 45 19 45 45 19 45-19 19-45zm128-224v320q0 40-28 68t-68 28H288q-40 0-68-28t-28-68v-320q0-40 28-68t68-28h465l135 136q58 56 136 56t136-56l136-136h464q40 0 68 28t28 68zm-325-569q17 41-14 70l-448 448q-18 19-45 19t-45-19L531 749q-31-29-14-70 17-39 59-39h256V192q0-26 19-45t45-19h256q26 0 45 19t19 45v448h256q42 0 59 39z"/></symbol><symbol viewBox="0 0 2048 2048" id="icon-exclamation-circle"><title>exclamation-circle</title><path d="M1024 256q209 0 385.5 103T1689 638.5t103 385.5-103 385.5-279.5 279.5-385.5 103-385.5-103T359 1409.5 256 1024t103-385.5T638.5 359 1024 256zm128 1247v-190q0-14-9-23.5t-22-9.5H929q-13 0-23 10t-10 23v190q0 13 10 23t23 10h192q13 0 22-9.5t9-23.5zm-2-344l18-621q0-12-10-18-10-8-24-8H914q-14 0-24 8-10 6-10 18l17 621q0 10 10 17.5t24 7.5h185q14 0 23.5-7.5t10.5-17.5z"/></symbol><symbol viewBox="0 0 2048 2048" id="icon-exclamation-triangle"><title>exclamation-triangle</title><path d="M1152 1503v-190q0-14-9.5-23.5t-22.5-9.5H928q-13 0-22.5 9.5T896 1313v190q0 14 9.5 23.5t22.5 9.5h192q13 0 22.5-9.5t9.5-23.5zm-2-374l18-459q0-12-10-19-13-11-24-11H914q-11 0-24 11-10 7-10 21l17 457q0 10 10 16.5t24 6.5h185q14 0 23.5-6.5t10.5-16.5zm-14-934l768 1408q35 63-2 126-17 29-46.5 46t-63.5 17H256q-34 0-63.5-17t-46.5-46q-37-63-2-126L912 195q17-31 47-49t65-18 65 18 47 49z"/></symbol><symbol viewBox="0 0 2048 2048" id="icon-exclamation"><title>exclamation</title><path d="M1216 1376v224q0 26-19 45t-45 19H896q-26 0-45-19t-19-45v-224q0-26 19-45t45-19h256q26 0 45 19t19 45zm30-1056l-28 768q-1 26-20.5 45t-45.5 19H896q-26 0-45.5-19t-20.5-45l-28-768q-1-26 17.5-45t44.5-19h320q26 0 44.5 19t17.5 45z"/></symbol><symbol viewBox="0 0 2048 2048" id="icon-expand"><title>expand</title><path d="M1011 1184q0 13-10 23l-332 332 144 144q19 19 19 45t-19 45-45 19H320q-26 0-45-19t-19-45v-448q0-26 19-45t45-19 45 19l144 144 332-332q10-10 23-10t23 10l114 114q10 10 10 23zm781-864v448q0 26-19 45t-45 19-45-19l-144-144-332 332q-10 10-23 10t-23-10l-114-114q-10-10-10-23t10-23l332-332-144-144q-19-19-19-45t19-45 45-19h448q26 0 45 19t19 45z"/></symbol><symbol viewBox="0 0 2048 2048" id="icon-file-archive-o"><title>file-archive-o</title><path d="M896 512V384H768v128h128zm128 128V512H896v128h128zM896 768V640H768v128h128zm128 128V768H896v128h128zm700-388q28 28 48 76t20 88v1152q0 40-28 68t-68 28H352q-40 0-68-28t-28-68V224q0-40 28-68t68-28h896q40 0 88 20t76 48zm-444-244v376h376q-10-29-22-41l-313-313q-12-12-41-22zm384 1528V768h-416q-40 0-68-28t-28-68V256h-128v128H896V256H384v1536h1280zm-627-721l107 349q8 27 8 52 0 83-72.5 137.5T896 1664t-183.5-54.5T640 1472q0-25 8-52 21-63 120-396V896h128v128h79q22 0 39 13t23 34zm-141 465q53 0 90.5-19t37.5-45-37.5-45-90.5-19-90.5 19-37.5 45 37.5 45 90.5 19z"/></symbol><symbol viewBox="0 0 2048 2048" id="icon-file-audio-o"><title>file-audio-o</title><path d="M1724 508q28 28 48 76t20 88v1152q0 40-28 68t-68 28H352q-40 0-68-28t-28-68V224q0-40 28-68t68-28h896q40 0 88 20t76 48zm-444-244v376h376q-10-29-22-41l-313-313q-12-12-41-22zm384 1528V768h-416q-40 0-68-28t-28-68V256H384v1536h1280zM876 978q20 8 20 30v544q0 22-20 30-8 2-12 2-12 0-23-9l-166-167H544q-14 0-23-9t-9-23v-192q0-14 9-23t23-9h131l166-167q16-15 35-7zm417 689q31 0 50-24 129-159 129-363t-129-363q-16-21-43-24t-47 14q-21 17-23.5 43.5T1244 998q100 123 100 282t-100 282q-17 21-14.5 47.5t23.5 42.5q18 15 40 15zm-211-148q27 0 47-20 87-93 87-219t-87-219q-18-19-45-20t-46 17-20 44.5 18 46.5q52 57 52 131t-52 131q-19 20-18 46.5t20 44.5q20 17 44 17z"/></symbol><symbol viewBox="0 0 2048 2048" id="icon-file-code-o"><title>file-code-o</title><path d="M1724 508q28 28 48 76t20 88v1152q0 40-28 68t-68 28H352q-40 0-68-28t-28-68V224q0-40 28-68t68-28h896q40 0 88 20t76 48zm-444-244v376h376q-10-29-22-41l-313-313q-12-12-41-22zm384 1528V768h-416q-40 0-68-28t-28-68V256H384v1536h1280zM736 896q8-11 21-12.5t24 6.5l51 38q11 8 12.5 21t-6.5 24l-182 243 182 243q8 11 6.5 24t-12.5 21l-51 38q-11 8-24 6.5t-21-12.5l-226-301q-14-19 0-38zm802 301q14 19 0 38l-226 301q-8 11-21 12.5t-24-6.5l-51-38q-11-8-12.5-21t6.5-24l182-243-182-243q-8-11-6.5-24t12.5-21l51-38q11-8 24-6.5t21 12.5zm-620 461q-13-2-20.5-13t-5.5-24l138-831q2-13 13-20.5t24-5.5l63 10q13 2 20.5 13t5.5 24l-138 831q-2 13-13 20.5t-24 5.5z"/></symbol><symbol viewBox="0 0 2048 2048" id="icon-file-excel-o"><title>file-excel-o</title><path d="M1724 508q28 28 48 76t20 88v1152q0 40-28 68t-68 28H352q-40 0-68-28t-28-68V224q0-40 28-68t68-28h896q40 0 88 20t76 48zm-444-244v376h376q-10-29-22-41l-313-313q-12-12-41-22zm384 1528V768h-416q-40 0-68-28t-28-68V256H384v1536h1280zm-979-234v106h281v-106h-75l103-161q5-7 10-16.5t7.5-13.5 3.5-4h2q1 4 5 10 2 4 4.5 7.5t6 8 6.5 8.5l107 161h-76v106h291v-106h-68l-192-273 195-282h67V896h-279v107h74l-103 159q-4 7-10 16.5t-9 13.5l-2 3h-2q-1-4-5-10-6-11-17-23l-106-159h76V896H690v107h68l189 272-194 283h-68z"/></symbol><symbol viewBox="0 0 2048 2048" id="icon-file-image-o"><title>file-image-o</title><path d="M1724 508q28 28 48 76t20 88v1152q0 40-28 68t-68 28H352q-40 0-68-28t-28-68V224q0-40 28-68t68-28h896q40 0 88 20t76 48zm-444-244v376h376q-10-29-22-41l-313-313q-12-12-41-22zm384 1528V768h-416q-40 0-68-28t-28-68V256H384v1536h1280zm-128-448v320H512v-192l192-192 128 128 384-384zm-832-192q-80 0-136-56t-56-136 56-136 136-56 136 56 56 136-56 136-136 56z"/></symbol><symbol viewBox="0 0 2048 2048" id="icon-file-o"><title>file-o</title><path d="M1724 508q28 28 48 76t20 88v1152q0 40-28 68t-68 28H352q-40 0-68-28t-28-68V224q0-40 28-68t68-28h896q40 0 88 20t76 48zm-444-244v376h376q-10-29-22-41l-313-313q-12-12-41-22zm384 1528V768h-416q-40 0-68-28t-28-68V256H384v1536h1280z"/></symbol><symbol viewBox="0 0 2048 2048" id="icon-file-pdf-o"><title>file-pdf-o</title><path d="M1724 508q28 28 48 76t20 88v1152q0 40-28 68t-68 28H352q-40 0-68-28t-28-68V224q0-40 28-68t68-28h896q40 0 88 20t76 48zm-444-244v376h376q-10-29-22-41l-313-313q-12-12-41-22zm384 1528V768h-416q-40 0-68-28t-28-68V256H384v1536h1280zm-514-593q33 26 84 56 59-7 117-7 147 0 177 49 16 22 2 52 0 1-1 2l-2 2v1q-6 38-71 38-48 0-115-20t-130-53q-221 24-392 83-153 262-242 262-15 0-28-7l-24-12q-1-1-6-5-10-10-6-36 9-40 56-91.5t132-96.5q14-9 23 6 2 2 2 4 52-85 107-197 68-136 104-262-24-82-30.5-159.5T913 680q11-40 42-40h22q23 0 35 15 18 21 9 68-2 6-4 8 1 3 1 8v30q-2 123-14 192 55 164 146 238zm-576 411q52-24 137-158-51 40-87.5 84t-49.5 74zm398-920q-15 42-2 132 1-7 7-44 0-3 7-43 1-4 4-8-1-1-1-2t-.5-1.5-.5-1.5q-1-22-13-36 0 1-1 2v2zm-124 661q135-54 284-81-2-1-13-9.5t-16-13.5q-76-67-127-176-27 86-83 197-30 56-45 83zm646-16q-24-24-140-24 76 28 124 28 14 0 18-1 0-1-2-3z"/></symbol><symbol viewBox="0 0 2048 2048" id="icon-file-powerpoint-o"><title>file-powerpoint-o</title><path d="M1724 508q28 28 48 76t20 88v1152q0 40-28 68t-68 28H352q-40 0-68-28t-28-68V224q0-40 28-68t68-28h896q40 0 88 20t76 48zm-444-244v376h376q-10-29-22-41l-313-313q-12-12-41-22zm384 1528V768h-416q-40 0-68-28t-28-68V256H384v1536h1280zm-992-234v106h327v-106h-93v-167h137q76 0 118-15 67-23 106.5-87t39.5-146q0-81-37-141t-100-87q-48-19-130-19H672v107h92v555h-92zm353-280H906v-268h120q52 0 83 18 56 33 56 115 0 89-62 120-31 15-78 15z"/></symbol><symbol viewBox="0 0 2048 2048" id="icon-file-text-o"><title>file-text-o</title><path d="M1724 508q28 28 48 76t20 88v1152q0 40-28 68t-68 28H352q-40 0-68-28t-28-68V224q0-40 28-68t68-28h896q40 0 88 20t76 48zm-444-244v376h376q-10-29-22-41l-313-313q-12-12-41-22zm384 1528V768h-416q-40 0-68-28t-28-68V256H384v1536h1280zM640 928q0-14 9-23t23-9h704q14 0 23 9t9 23v64q0 14-9 23t-23 9H672q-14 0-23-9t-9-23v-64zm736 224q14 0 23 9t9 23v64q0 14-9 23t-23 9H672q-14 0-23-9t-9-23v-64q0-14 9-23t23-9h704zm0 256q14 0 23 9t9 23v64q0 14-9 23t-23 9H672q-14 0-23-9t-9-23v-64q0-14 9-23t23-9h704z"/></symbol><symbol viewBox="0 0 2048 2048" id="icon-file-text"><title>file-text</title><path d="M1724 604q14 14 28 36h-472V168q22 14 36 28zm-476 164h544v1056q0 40-28 68t-68 28H352q-40 0-68-28t-28-68V224q0-40 28-68t68-28h800v544q0 40 28 68t68 28zm160 736v-64q0-14-9-23t-23-9H672q-14 0-23 9t-9 23v64q0 14 9 23t23 9h704q14 0 23-9t9-23zm0-256v-64q0-14-9-23t-23-9H672q-14 0-23 9t-9 23v64q0 14 9 23t23 9h704q14 0 23-9t9-23zm0-256v-64q0-14-9-23t-23-9H672q-14 0-23 9t-9 23v64q0 14 9 23t23 9h704q14 0 23-9t9-23z"/></symbol><symbol viewBox="0 0 2048 2048" id="icon-file-video-o"><title>file-video-o</title><path d="M1724 508q28 28 48 76t20 88v1152q0 40-28 68t-68 28H352q-40 0-68-28t-28-68V224q0-40 28-68t68-28h896q40 0 88 20t76 48zm-444-244v376h376q-10-29-22-41l-313-313q-12-12-41-22zm384 1528V768h-416q-40 0-68-28t-28-68V256H384v1536h1280zm-640-896q52 0 90 38t38 90v384q0 52-38 90t-90 38H640q-52 0-90-38t-38-90v-384q0-52 38-90t90-38h384zm492 2q20 8 20 30v576q0 22-20 30-8 2-12 2-14 0-23-9l-265-266v-90l265-266q9-9 23-9 4 0 12 2z"/></symbol><symbol viewBox="0 0 2048 2048" id="icon-file-word-o"><title>file-word-o</title><path d="M1724 508q28 28 48 76t20 88v1152q0 40-28 68t-68 28H352q-40 0-68-28t-28-68V224q0-40 28-68t68-28h896q40 0 88 20t76 48zm-444-244v376h376q-10-29-22-41l-313-313q-12-12-41-22zm384 1528V768h-416q-40 0-68-28t-28-68V256H384v1536h1280zM489 896v107h70l164 661h159l128-485q7-20 10-46 2-16 2-24h4l3 24q1 3 3.5 20t5.5 26l128 485h159l164-661h70V896h-300v107h90l-99 438q-5 20-7 46l-2 21h-4l-3-21q-1-5-4-21t-5-25l-144-545H967l-144 545q-2 9-4.5 24.5T815 1487l-4 21h-4l-2-21q-2-26-7-46l-99-438h90V896H489z"/></symbol><symbol viewBox="0 0 2048 2048" id="icon-file"><title>file</title><path d="M1280 640V168q22 14 36 28l408 408q14 14 28 36h-472zm-128 32q0 40 28 68t68 28h544v1056q0 40-28 68t-68 28H352q-40 0-68-28t-28-68V224q0-40 28-68t68-28h800v544z"/></symbol><symbol viewBox="0 0 2048 2048" id="icon-folder-o"><title>folder-o</title><path d="M1728 1440V736q0-40-28-68t-68-28H928q-40 0-68-28t-28-68v-64q0-40-28-68t-68-28H416q-40 0-68 28t-28 68v960q0 40 28 68t68 28h1216q40 0 68-28t28-68zm128-704v704q0 92-66 158t-158 66H416q-92 0-158-66t-66-158V480q0-92 66-158t158-66h320q92 0 158 66t66 158v32h672q92 0 158 66t66 158z"/></symbol><symbol viewBox="0 0 2048 2048" id="icon-folder-open-o"><title>folder-open-o</title><path d="M1845 1059q0-35-53-35H704q-40 0-85.5 21.5T547 1098l-294 363q-18 24-18 40 0 35 53 35h1088q40 0 86-22t71-53l294-363q18-22 18-39zM704 896h768V736q0-40-28-68t-68-28H800q-40 0-68-28t-28-68v-64q0-40-28-68t-68-28H288q-40 0-68 28t-28 68v853l256-315q44-53 116-87.5T704 896zm1269 163q0 62-46 120l-295 363q-43 53-116 87.5t-140 34.5H288q-92 0-158-66t-66-158V480q0-92 66-158t158-66h320q92 0 158 66t66 158v32h544q92 0 158 66t66 158v160h192q54 0 99 24.5t67 70.5q15 32 15 68z"/></symbol><symbol viewBox="0 0 2048 2048" id="icon-folder-open"><title>folder-open</title><path d="M1943 1080q0 31-31 66l-336 396q-43 51-120.5 86.5T1312 1664H224q-34 0-60.5-13t-26.5-43q0-31 31-66l336-396q43-51 120.5-86.5T768 1024h1088q34 0 60.5 13t26.5 43zm-343-344v160H768q-94 0-197 47.5T407 1063L70 1459l-5 6q0-4-.5-12.5T64 1440V480q0-92 66-158t158-66h320q92 0 158 66t66 158v32h544q92 0 158 66t66 158z"/></symbol><symbol viewBox="0 0 2048 2048" id="icon-folder"><title>folder</title><path d="M1856 736v704q0 92-66 158t-158 66H416q-92 0-158-66t-66-158V480q0-92 66-158t158-66h320q92 0 158 66t66 158v32h672q92 0 158 66t66 158z"/></symbol><symbol viewBox="0 0 2048 2048" id="icon-info-circle"><title>info-circle</title><path d="M1280 1504v-160q0-14-9-23t-23-9h-96V800q0-14-9-23t-23-9H800q-14 0-23 9t-9 23v160q0 14 9 23t23 9h96v320h-96q-14 0-23 9t-9 23v160q0 14 9 23t23 9h448q14 0 23-9t9-23zm-128-896V448q0-14-9-23t-23-9H928q-14 0-23 9t-9 23v160q0 14 9 23t23 9h192q14 0 23-9t9-23zm640 416q0 209-103 385.5T1409.5 1689 1024 1792t-385.5-103T359 1409.5 256 1024t103-385.5T638.5 359 1024 256t385.5 103T1689 638.5t103 385.5z"/></symbol><symbol viewBox="0 0 2048 2048" id="icon-list"><title>list</title><path d="M384 1440v192q0 13-9.5 22.5T352 1664H160q-13 0-22.5-9.5T128 1632v-192q0-13 9.5-22.5t22.5-9.5h192q13 0 22.5 9.5t9.5 22.5zm0-384v192q0 13-9.5 22.5T352 1280H160q-13 0-22.5-9.5T128 1248v-192q0-13 9.5-22.5t22.5-9.5h192q13 0 22.5 9.5t9.5 22.5zm0-384v192q0 13-9.5 22.5T352 896H160q-13 0-22.5-9.5T128 864V672q0-13 9.5-22.5T160 640h192q13 0 22.5 9.5T384 672zm1536 768v192q0 13-9.5 22.5t-22.5 9.5H544q-13 0-22.5-9.5T512 1632v-192q0-13 9.5-22.5t22.5-9.5h1344q13 0 22.5 9.5t9.5 22.5zM384 288v192q0 13-9.5 22.5T352 512H160q-13 0-22.5-9.5T128 480V288q0-13 9.5-22.5T160 256h192q13 0 22.5 9.5T384 288zm1536 768v192q0 13-9.5 22.5t-22.5 9.5H544q-13 0-22.5-9.5T512 1248v-192q0-13 9.5-22.5t22.5-9.5h1344q13 0 22.5 9.5t9.5 22.5zm0-384v192q0 13-9.5 22.5T1888 896H544q-13 0-22.5-9.5T512 864V672q0-13 9.5-22.5T544 640h1344q13 0 22.5 9.5t9.5 22.5zm0-384v192q0 13-9.5 22.5T1888 512H544q-13 0-22.5-9.5T512 480V288q0-13 9.5-22.5T544 256h1344q13 0 22.5 9.5t9.5 22.5z"/></symbol><symbol viewBox="0 0 1668 1310.57" id="icon-masonry"><title>masonry</title><path d="M982.93 476.58H89.36q-37.23 0-63.29 26.06T0 565.93v655.29q0 37.23 26.06 63.29t63.29 26.06h893.57q37.23 0 63.29-26.06t26.06-63.29V565.93q0-37.23-26.06-63.29t-63.28-26.06zM89.36 357.43h297.85q37.23 0 63.29-26.06t26.06-63.29V89.36q0-37.23-26.06-63.29T387.21.01H89.36q-37.23 0-63.29 26.06T0 89.36v178.72q0 37.23 26.06 63.29t63.3 26.06zM1578.64 953.15h-297.85q-37.23 0-63.29 26.06t-26.06 63.29v178.71q0 37.23 26.06 63.29t63.29 26.06h297.86q37.23 0 63.29-26.06t26.06-63.29V1042.5q0-37.23-26.06-63.29t-63.3-26.06zM1641.94 26.07Q1615.88.01 1578.65.01h-297.86q-37.23 0-63.29 26.06t-26.06 63.29v655.29q0 37.23 26.06 63.29t63.29 26.06h297.86q37.23 0 63.29-26.06t26.06-63.29V89.36q0-37.23-26.06-63.29zM982.93 0H685.07q-37.23 0-63.29 26.06t-26.06 63.29v178.73q0 37.23 26.06 63.29t63.29 26.06h297.86q37.23 0 63.29-26.06t26.06-63.29V89.36q0-37.23-26.06-63.29T982.93 0z"/></symbol><symbol viewBox="0 0 2048 2048" id="icon-plus-square-o"><title>plus-square-o</title><path d="M1472 928v64q0 14-9 23t-23 9h-352v352q0 14-9 23t-23 9h-64q-14 0-23-9t-9-23v-352H608q-14 0-23-9t-9-23v-64q0-14 9-23t23-9h352V544q0-14 9-23t23-9h64q14 0 23 9t9 23v352h352q14 0 23 9t9 23zm128 448V544q0-66-47-113t-113-47H608q-66 0-113 47t-47 113v832q0 66 47 113t113 47h832q66 0 113-47t47-113zm128-832v832q0 119-84.5 203.5T1440 1664H608q-119 0-203.5-84.5T320 1376V544q0-119 84.5-203.5T608 256h832q119 0 203.5 84.5T1728 544z"/></symbol><symbol viewBox="0 0 2048 2048" id="icon-plus-square"><title>plus-square</title><path d="M1536 1088V960q0-26-19-45t-45-19h-320V576q0-26-19-45t-45-19H960q-26 0-45 19t-19 45v320H576q-26 0-45 19t-19 45v128q0 26 19 45t45 19h320v320q0 26 19 45t45 19h128q26 0 45-19t19-45v-320h320q26 0 45-19t19-45zm256-544v960q0 119-84.5 203.5T1504 1792H544q-119 0-203.5-84.5T256 1504V544q0-119 84.5-203.5T544 256h960q119 0 203.5 84.5T1792 544z"/></symbol><symbol viewBox="0 0 2048 2048" id="icon-search-minus"><title>search-minus</title><path d="M1819 1702l-343-343q124-179 124-399 0-143-55.5-273.5t-150-225q-94.5-94.5-225-150T896 256q-143 0-273.5 55.5t-225 150q-94.5 94.5-150 225T192 960q0 143 55.5 273.5t150 225q94.5 94.5 225 150T896 1664q220 0 399-124l343 342q36 38 90 38 53 0 90.5-37.5t37.5-90.5q0-53-37-90zm-606.5-425.5Q1081 1408 896 1408t-316.5-131.5Q448 1145 448 960t131.5-316.5Q711 512 896 512t316.5 131.5Q1344 775 1344 960t-131.5 316.5zM613 912a32.45 32.45 0 0 0-32 32v64a32.45 32.45 0 0 0 32 32h576a32.45 32.45 0 0 0 32-32v-64a32.45 32.45 0 0 0-32-32z"/></symbol><symbol viewBox="0 0 2048 2048" id="icon-search-plus"><title>search-plus</title><path d="M1216 928v64q0 13-9.5 22.5t-22.5 9.5H960v224q0 13-9.5 22.5T928 1280h-64q-13 0-22.5-9.5T832 1248v-224H608q-13 0-22.5-9.5T576 992v-64q0-13 9.5-22.5T608 896h224V672q0-13 9.5-22.5T864 640h64q13 0 22.5 9.5T960 672v224h224q13 0 22.5 9.5t9.5 22.5zm128 32q0-185-131.5-316.5T896 512 579.5 643.5 448 960t131.5 316.5T896 1408t316.5-131.5T1344 960zm512 832q0 53-37.5 90.5T1728 1920q-54 0-90-38l-343-342q-179 124-399 124-143 0-273.5-55.5t-225-150-150-225T192 960t55.5-273.5 150-225 225-150T896 256t273.5 55.5 225 150 150 225T1600 960q0 220-124 399l343 343q37 37 37 90z"/></symbol><symbol viewBox="0 0 2048 2048" id="icon-sort-alpha-asc"><title>sort-alpha-asc</title><path d="M1383 536h177l-72-218-12-47q-2-16-2-20h-4l-3 20q0 1-3.5 18t-7.5 29zM928 1568q0 12-10 24l-319 319q-10 9-23 9-12 0-23-9l-320-320q-15-16-7-35 8-20 30-20h192V160q0-14 9-23t23-9h192q14 0 23 9t9 23v1376h192q14 0 23 9t9 23zm836 119v233h-584v-90l369-529q12-18 21-27l11-9v-3q-2 0-6.5.5t-7.5.5q-12 3-30 3h-232v115h-120v-229h567v89l-369 530q-6 8-21 26l-11 11v2l14-2q9-2 30-2h248v-119h121zm89-897v106h-288V790h75l-47-144h-243l-47 144h75v106h-287V790h70l230-662h162l230 662h70z"/></symbol><symbol viewBox="0 0 2048 2048" id="icon-sort-alpha-desc"><title>sort-alpha-desc</title><path d="M1383 1560h177l-72-218-12-47q-2-16-2-20h-4l-3 20q0 1-3.5 18t-7.5 29zm-455 8q0 12-10 24l-319 319q-10 9-23 9-12 0-23-9l-320-320q-15-16-7-35 8-20 30-20h192V160q0-14 9-23t23-9h192q14 0 23 9t9 23v1376h192q14 0 23 9t9 23zm925 246v106h-288v-106h75l-47-144h-243l-47 144h75v106h-287v-106h70l230-662h162l230 662h70zm-89-1151v233h-584v-90l369-529q12-18 21-27l11-9v-3q-2 0-6.5.5t-7.5.5q-12 3-30 3h-232v115h-120V128h567v89l-369 530q-6 8-21 26l-11 10v3l14-3q9-1 30-1h248V663h121z"/></symbol><symbol viewBox="0 0 2048 2048" id="icon-sort-amount-asc"><title>sort-amount-asc</title><path d="M864 1568q0 12-10 24l-319 319q-10 9-23 9-12 0-23-9l-320-320q-15-16-7-35 8-20 30-20h192V160q0-14 9-23t23-9h192q14 0 23 9t9 23v1376h192q14 0 23 9t9 23zm1056 128v192q0 14-9 23t-23 9h-832q-14 0-23-9t-9-23v-192q0-14 9-23t23-9h832q14 0 23 9t9 23zm-192-512v192q0 14-9 23t-23 9h-640q-14 0-23-9t-9-23v-192q0-14 9-23t23-9h640q14 0 23 9t9 23zm-192-512v192q0 14-9 23t-23 9h-448q-14 0-23-9t-9-23V672q0-14 9-23t23-9h448q14 0 23 9t9 23zm-192-512v192q0 14-9 23t-23 9h-256q-14 0-23-9t-9-23V160q0-14 9-23t23-9h256q14 0 23 9t9 23z"/></symbol><symbol viewBox="0 0 2048 2048" id="icon-sort-amount-desc"><title>sort-amount-desc</title><path d="M1344 1696v192q0 14-9 23t-23 9h-256q-14 0-23-9t-9-23v-192q0-14 9-23t23-9h256q14 0 23 9t9 23zm-480-128q0 12-10 24l-319 319q-10 9-23 9-12 0-23-9l-320-320q-15-16-7-35 8-20 30-20h192V160q0-14 9-23t23-9h192q14 0 23 9t9 23v1376h192q14 0 23 9t9 23zm672-384v192q0 14-9 23t-23 9h-448q-14 0-23-9t-9-23v-192q0-14 9-23t23-9h448q14 0 23 9t9 23zm192-512v192q0 14-9 23t-23 9h-640q-14 0-23-9t-9-23V672q0-14 9-23t23-9h640q14 0 23 9t9 23zm192-512v192q0 14-9 23t-23 9h-832q-14 0-23-9t-9-23V160q0-14 9-23t23-9h832q14 0 23 9t9 23z"/></symbol><symbol viewBox="0 0 2048 2048" id="icon-sort-asc"><title>sort-asc</title><path d="M1536 832q0 26-19 45t-45 19H576q-26 0-45-19t-19-45 19-45l448-448q19-19 45-19t45 19l448 448q19 19 19 45z"/></symbol><symbol viewBox="0 0 2048 2048" id="icon-sort-desc"><title>sort-desc</title><path d="M1536 1216q0 26-19 45l-448 448q-19 19-45 19t-45-19l-448-448q-19-19-19-45t19-45 45-19h896q26 0 45 19t19 45z"/></symbol><symbol viewBox="0 0 2048 2048" id="icon-sort-numeric-asc"><title>sort-numeric-asc</title><path d="M1602 1441q0-63-44-116t-103-53q-52 0-83 37t-31 94 36.5 95 104.5 38q50 0 85-27t35-68zm-610 127q0 12-10 24l-319 319q-10 9-23 9-12 0-23-9l-320-320q-15-16-7-35 8-20 30-20h192V160q0-14 9-23t23-9h192q14 0 23 9t9 23v1376h192q14 0 23 9t9 23zm750-69q0 62-13 121.5t-41 114-68 95.5-98.5 65.5T1394 1920q-62 0-108-16-24-8-42-15l39-113q15 7 31 11 37 13 75 13 84 0 134.5-58.5T1590 1596h-2q-21 23-61.5 37t-84.5 14q-106 0-173-71.5t-67-172.5q0-105 72-178t181-73q123 0 205 94.5t82 252.5zm-30-717v114h-469V782h167V350q0-7 .5-19t.5-17v-16h-2l-7 12q-8 13-26 31l-62 58-82-86 192-185h123v654h165z"/></symbol><symbol viewBox="0 0 2048 2048" id="icon-sort-numeric-desc"><title>sort-numeric-desc</title><path d="M1602 417q0-63-44-116t-103-53q-52 0-83 37t-31 94 36.5 95 104.5 38q50 0 85-27t35-68zM992 1568q0 12-10 24l-319 319q-10 9-23 9-12 0-23-9l-320-320q-15-16-7-35 8-20 30-20h192V160q0-14 9-23t23-9h192q14 0 23 9t9 23v1376h192q14 0 23 9t9 23zm720 238v114h-469v-114h167v-432q0-7 .5-19t.5-17v-16h-2l-7 12q-8 13-26 31l-62 58-82-86 192-185h123v654h165zm30-1331q0 62-13 121.5t-41 114-68 95.5-98.5 65.5T1394 896q-62 0-108-16-24-8-42-15l39-113q15 7 31 11 37 13 75 13 84 0 134.5-58.5T1590 572h-2q-21 23-61.5 37t-84.5 14q-106 0-173-71.5T1202 379q0-105 72-178t181-73q123 0 205 94.5t82 252.5z"/></symbol><symbol viewBox="0 0 2048 2048" id="icon-sort"><title>sort</title><path d="M1536 1216q0 26-19 45l-448 448q-19 19-45 19t-45-19l-448-448q-19-19-19-45t19-45 45-19h896q26 0 45 19t19 45zm0-384q0 26-19 45t-45 19H576q-26 0-45-19t-19-45 19-45l448-448q19-19 45-19t45 19l448 448q19 19 19 45z"/></symbol><symbol viewBox="0 0 2048 2048" id="icon-spinner"><title>spinner</title><path d="M736 1472q0 60-42.5 102T592 1616q-60 0-102-42t-42-102 42-102 102-42q59 0 101.5 42t42.5 102zm432 192q0 53-37.5 90.5T1040 1792t-90.5-37.5T912 1664t37.5-90.5 90.5-37.5 90.5 37.5 37.5 90.5zm-608-640q0 66-47 113t-113 47-113-47-47-113 47-113 113-47 113 47 47 113zm1040 448q0 46-33 79t-79 33-79-33-33-79 33-79 79-33 79 33 33 79zM768 576q0 73-51.5 124.5T592 752t-124.5-51.5T416 576t51.5-124.5T592 400t124.5 51.5T768 576zm464-192q0 80-56 136t-136 56-136-56-56-136 56-136 136-56 136 56 56 136zm544 640q0 40-28 68t-68 28-68-28-28-68 28-68 68-28 68 28 28 68zm-208-448q0 33-23.5 56.5T1488 656t-56.5-23.5T1408 576t23.5-56.5T1488 496t56.5 23.5T1568 576z"/></symbol><symbol viewBox="0 0 2048 2048" id="icon-square-o"><title>square-o</title><path d="M1440 384H608q-66 0-113 47t-47 113v832q0 66 47 113t113 47h832q66 0 113-47t47-113V544q0-66-47-113t-113-47zm288 160v832q0 119-84.5 203.5T1440 1664H608q-119 0-203.5-84.5T320 1376V544q0-119 84.5-203.5T608 256h832q119 0 203.5 84.5T1728 544z"/></symbol><symbol viewBox="0 0 2048 2048" id="icon-square"><title>square</title><path d="M1792 544v960q0 119-84.5 203.5T1504 1792H544q-119 0-203.5-84.5T256 1504V544q0-119 84.5-203.5T544 256h960q119 0 203.5 84.5T1792 544z"/></symbol><symbol viewBox="0 0 2048 2048" id="icon-table"><title>table</title><path d="M704 1504v-192q0-14-9-23t-23-9H352q-14 0-23 9t-9 23v192q0 14 9 23t23 9h320q14 0 23-9t9-23zm0-384V928q0-14-9-23t-23-9H352q-14 0-23 9t-9 23v192q0 14 9 23t23 9h320q14 0 23-9t9-23zm512 384v-192q0-14-9-23t-23-9H864q-14 0-23 9t-9 23v192q0 14 9 23t23 9h320q14 0 23-9t9-23zM704 736V544q0-14-9-23t-23-9H352q-14 0-23 9t-9 23v192q0 14 9 23t23 9h320q14 0 23-9t9-23zm512 384V928q0-14-9-23t-23-9H864q-14 0-23 9t-9 23v192q0 14 9 23t23 9h320q14 0 23-9t9-23zm512 384v-192q0-14-9-23t-23-9h-320q-14 0-23 9t-9 23v192q0 14 9 23t23 9h320q14 0 23-9t9-23zm-512-768V544q0-14-9-23t-23-9H864q-14 0-23 9t-9 23v192q0 14 9 23t23 9h320q14 0 23-9t9-23zm512 384V928q0-14-9-23t-23-9h-320q-14 0-23 9t-9 23v192q0 14 9 23t23 9h320q14 0 23-9t9-23zm0-384V544q0-14-9-23t-23-9h-320q-14 0-23 9t-9 23v192q0 14 9 23t23 9h320q14 0 23-9t9-23zm128-320v1088q0 66-47 113t-113 47H352q-66 0-113-47t-47-113V416q0-66 47-113t113-47h1344q66 0 113 47t47 113z"/></symbol><symbol viewBox="0 0 2048 2048" id="icon-th-large"><title>th-large</title><path d="M960 1152v384q0 52-38 90t-90 38H320q-52 0-90-38t-38-90v-384q0-52 38-90t90-38h512q52 0 90 38t38 90zm0-768v384q0 52-38 90t-90 38H320q-52 0-90-38t-38-90V384q0-52 38-90t90-38h512q52 0 90 38t38 90zm896 768v384q0 52-38 90t-90 38h-512q-52 0-90-38t-38-90v-384q0-52 38-90t90-38h512q52 0 90 38t38 90zm0-768v384q0 52-38 90t-90 38h-512q-52 0-90-38t-38-90V384q0-52 38-90t90-38h512q52 0 90 38t38 90z"/></symbol><symbol viewBox="0 0 2048 2048" id="icon-th-list"><title>th-list</title><path d="M640 1376v192q0 40-28 68t-68 28H224q-40 0-68-28t-28-68v-192q0-40 28-68t68-28h320q40 0 68 28t28 68zm0-512v192q0 40-28 68t-68 28H224q-40 0-68-28t-28-68V864q0-40 28-68t68-28h320q40 0 68 28t28 68zm1280 512v192q0 40-28 68t-68 28H864q-40 0-68-28t-28-68v-192q0-40 28-68t68-28h960q40 0 68 28t28 68zM640 352v192q0 40-28 68t-68 28H224q-40 0-68-28t-28-68V352q0-40 28-68t68-28h320q40 0 68 28t28 68zm1280 512v192q0 40-28 68t-68 28H864q-40 0-68-28t-28-68V864q0-40 28-68t68-28h960q40 0 68 28t28 68zm0-512v192q0 40-28 68t-68 28H864q-40 0-68-28t-28-68V352q0-40 28-68t68-28h960q40 0 68 28t28 68z"/></symbol><symbol viewBox="0 0 2048 2048" id="icon-times"><title>times</title><path d="M1618 1450q0 40-28 68l-136 136q-28 28-68 28t-68-28l-294-294-294 294q-28 28-68 28t-68-28l-136-136q-28-28-28-68t28-68l294-294-294-294q-28-28-28-68t28-68l136-136q28-28 68-28t68 28l294 294 294-294q28-28 68-28t68 28l136 136q28 28 28 68t-28 68l-294 294 294 294q28 28 28 68z"/></symbol><symbol viewBox="0 0 2048 2048" id="icon-trash-o"><title>trash-o</title><path d="M832 864v576q0 14-9 23t-23 9h-64q-14 0-23-9t-9-23V864q0-14 9-23t23-9h64q14 0 23 9t9 23zm256 0v576q0 14-9 23t-23 9h-64q-14 0-23-9t-9-23V864q0-14 9-23t23-9h64q14 0 23 9t9 23zm256 0v576q0 14-9 23t-23 9h-64q-14 0-23-9t-9-23V864q0-14 9-23t23-9h64q14 0 23 9t9 23zm128 724V640H576v948q0 22 7 40.5t14.5 27 10.5 8.5h832q3 0 10.5-8.5t14.5-27 7-40.5zM800 512h448l-48-117q-7-9-17-11H866q-10 2-17 11zm928 32v64q0 14-9 23t-23 9h-96v948q0 83-47 143.5t-113 60.5H608q-66 0-113-58.5T448 1592V640h-96q-14 0-23-9t-9-23v-64q0-14 9-23t23-9h309l70-167q15-37 54-63t79-26h320q40 0 79 26t54 63l70 167h309q14 0 23 9t9 23z"/></symbol><symbol viewBox="0 0 2048 2048" id="icon-trash"><title>trash</title><path d="M832 1504V800q0-14-9-23t-23-9h-64q-14 0-23 9t-9 23v704q0 14 9 23t23 9h64q14 0 23-9t9-23zm256 0V800q0-14-9-23t-23-9h-64q-14 0-23 9t-9 23v704q0 14 9 23t23 9h64q14 0 23-9t9-23zm256 0V800q0-14-9-23t-23-9h-64q-14 0-23 9t-9 23v704q0 14 9 23t23 9h64q14 0 23-9t9-23zM800 512h448l-48-117q-7-9-17-11H866q-10 2-17 11zm928 32v64q0 14-9 23t-23 9h-96v948q0 83-47 143.5t-113 60.5H608q-66 0-113-58.5T448 1592V640h-96q-14 0-23-9t-9-23v-64q0-14 9-23t23-9h309l70-167q15-37 54-63t79-26h320q40 0 79 26t54 63l70 167h309q14 0 23 9t9 23z"/></symbol><symbol viewBox="0 0 2048 2048" id="icon-undo"><title>undo</title><path d="M1792 1024q0 156-61 298t-164 245-245 164-298 61q-172 0-327-72.5T433 1515q-7-10-6.5-22.5t8.5-20.5l137-138q10-9 25-9 16 2 23 12 73 95 179 147t225 52q104 0 198.5-40.5T1386 1386t109.5-163.5T1536 1024t-40.5-198.5T1386 662t-163.5-109.5T1024 512q-98 0-188 35.5T676 649l137 138q31 30 14 69-17 40-59 40H320q-26 0-45-19t-19-45V384q0-42 40-59 39-17 69 14l130 129q107-101 244.5-156.5T1024 256q156 0 298 61t245 164 164 245 61 298z"/></symbol><symbol viewBox="0 0 2048 2048" id="icon-upload"><title>upload</title><path d="M1472 1600q0-26-19-45t-45-19-45 19-19 45 19 45 45 19 45-19 19-45zm256 0q0-26-19-45t-45-19-45 19-19 45 19 45 45 19 45-19 19-45zm128-224v320q0 40-28 68t-68 28H288q-40 0-68-28t-28-68v-320q0-40 28-68t68-28h427q21 56 70.5 92t110.5 36h256q61 0 110.5-36t70.5-92h427q40 0 68 28t28 68zm-325-648q-17 40-59 40h-256v448q0 26-19 45t-45 19H896q-26 0-45-19t-19-45V768H576q-42 0-59-40-17-39 14-69l448-448q18-19 45-19t45 19l448 448q31 30 14 69z"/></symbol></svg>