<svg id="Layer_2" data-name="Layer 2" xmlns="http://www.w3.org/2000/svg" viewBox="0 0 51 74.88">
  <title>select-arrow</title>
  <rect y="19.88" width="51" height="55" fill="none"/>
  <path d="M37,28.88A1.56,1.56,0,0,1,36.52,30L25.14,41.39a1.59,1.59,0,0,1-2.29,0L11.48,30a1.63,1.63,0,0,1,1.14-2.77H35.38A1.65,1.65,0,0,1,37,28.88Zm0-9.75a1.65,1.65,0,0,1-1.62,1.63H12.63A1.62,1.62,0,0,1,11.48,18L22.86,6.61a1.59,1.59,0,0,1,2.29,0L36.52,18A1.56,1.56,0,0,1,37,19.13Z" transform="translate(-0.5 -6.13)" fill="#979797"/>
</svg>
