<svg id="Layer_1" data-name="Layer 1" xmlns="http://www.w3.org/2000/svg" viewBox="0 0 1668 1310.57">
  <title>masonry</title>
  <g>
    <path d="M1172.93,781.29H279.36q-37.23,0-63.29,26.06T190,870.64v655.29q0,37.23,26.06,63.29t63.29,26.06h893.57q37.23,0,63.29-26.06t26.06-63.29V870.64q0-37.23-26.06-63.29T1172.93,781.29Z" transform="translate(-190 -304.71)"/>
    <path d="M279.36,662.14H577.21q37.23,0,63.29-26.06t26.06-63.29V394.07q0-37.23-26.06-63.29t-63.29-26.06H279.36q-37.23,0-63.29,26.06T190,394.07V572.79q0,37.23,26.06,63.29T279.36,662.14Z" transform="translate(-190 -304.71)"/>
    <path d="M1768.64,1257.86H1470.79q-37.23,0-63.29,26.06t-26.06,63.29v178.71q0,37.23,26.06,63.29t63.29,26.06h297.86q37.23,0,63.29-26.06t26.06-63.29V1347.21q0-37.23-26.06-63.29T1768.64,1257.86Z" transform="translate(-190 -304.71)"/>
    <path d="M1831.94,330.78q-26.06-26.06-63.29-26.06H1470.79q-37.23,0-63.29,26.06t-26.06,63.29v655.29q0,37.23,26.06,63.29t63.29,26.06h297.86q37.23,0,63.29-26.06t26.06-63.29V394.07Q1858,356.84,1831.94,330.78Z" transform="translate(-190 -304.71)"/>
    <path d="M1172.93,304.71H875.07q-37.23,0-63.29,26.06t-26.06,63.29V572.79q0,37.23,26.06,63.29t63.29,26.06h297.86q37.23,0,63.29-26.06t26.06-63.29V394.07q0-37.23-26.06-63.29T1172.93,304.71Z" transform="translate(-190 -304.71)"/>
  </g>
</svg>
