<svg id="Layer_1" data-name="Layer 1" xmlns="http://www.w3.org/2000/svg" viewBox="0 0 2048 2048">
  <title>search-minus</title>
  <path d="M1819,1702l-343-343q124-179,124-399,0-143-55.5-273.5t-150-225q-94.5-94.5-225-150T896,256q-143,0-273.5,55.5t-225,150q-94.5,94.5-150,225T192,960q0,143,55.5,273.5t150,225q94.5,94.5,225,150T896,1664q220,0,399-124l343,342q36,38,90,38,53,0,90.5-37.5T1856,1792Q1856,1739,1819,1702Zm-606.5-425.5Q1081,1408,896,1408T579.5,1276.5Q448,1145,448,960T579.5,643.5Q711,512,896,512t316.5,131.5Q1344,775,1344,960T1212.5,1276.5Z"/>
  <path d="M613,912a32.45,32.45,0,0,0-32,32v64a32.45,32.45,0,0,0,32,32h576a32.45,32.45,0,0,0,32-32V944a32.45,32.45,0,0,0-32-32Z"/>
</svg>
