<svg xmlns="http://www.w3.org/2000/svg">
  <symbol viewBox="0 0 2048 2048" id="icon-th-list">
    <title>th-list</title>
    <path d="M640 1376v192q0 40-28 68t-68 28h-320q-40 0-68-28t-28-68v-192q0-40 28-68t68-28h320q40 0 68 28t28 68zm0-512v192q0 40-28 68t-68 28h-320q-40 0-68-28t-28-68v-192q0-40 28-68t68-28h320q40 0 68 28t28 68zm1280 512v192q0 40-28 68t-68 28h-960q-40 0-68-28t-28-68v-192q0-40 28-68t68-28h960q40 0 68 28t28 68zm-1280-1024v192q0 40-28 68t-68 28h-320q-40 0-68-28t-28-68v-192q0-40 28-68t68-28h320q40 0 68 28t28 68zm1280 512v192q0 40-28 68t-68 28h-960q-40 0-68-28t-28-68v-192q0-40 28-68t68-28h960q40 0 68 28t28 68zm0-512v192q0 40-28 68t-68 28h-960q-40 0-68-28t-28-68v-192q0-40 28-68t68-28h960q40 0 68 28t28 68z"
    />
  </symbol>
  <symbol viewBox="0 0 2048 2048" id="icon-th-large">
    <title>th-large</title>
    <path d="M960 1152v384q0 52-38 90t-90 38h-512q-52 0-90-38t-38-90v-384q0-52 38-90t90-38h512q52 0 90 38t38 90zm0-768v384q0 52-38 90t-90 38h-512q-52 0-90-38t-38-90v-384q0-52 38-90t90-38h512q52 0 90 38t38 90zm896 768v384q0 52-38 90t-90 38h-512q-52 0-90-38t-38-90v-384q0-52 38-90t90-38h512q52 0 90 38t38 90zm0-768v384q0 52-38 90t-90 38h-512q-52 0-90-38t-38-90v-384q0-52 38-90t90-38h512q52 0 90 38t38 90z"
    />
  </symbol>
  <symbol viewBox="0 0 2048 2048" id="icon-list">
    <title>list</title>
    <path d="M384 1440v192q0 13-9.5 22.5t-22.5 9.5h-192q-13 0-22.5-9.5t-9.5-22.5v-192q0-13 9.5-22.5t22.5-9.5h192q13 0 22.5 9.5t9.5 22.5zm0-384v192q0 13-9.5 22.5t-22.5 9.5h-192q-13 0-22.5-9.5t-9.5-22.5v-192q0-13 9.5-22.5t22.5-9.5h192q13 0 22.5 9.5t9.5 22.5zm0-384v192q0 13-9.5 22.5t-22.5 9.5h-192q-13 0-22.5-9.5t-9.5-22.5v-192q0-13 9.5-22.5t22.5-9.5h192q13 0 22.5 9.5t9.5 22.5zm1536 768v192q0 13-9.5 22.5t-22.5 9.5h-1344q-13 0-22.5-9.5t-9.5-22.5v-192q0-13 9.5-22.5t22.5-9.5h1344q13 0 22.5 9.5t9.5 22.5zm-1536-1152v192q0 13-9.5 22.5t-22.5 9.5h-192q-13 0-22.5-9.5t-9.5-22.5v-192q0-13 9.5-22.5t22.5-9.5h192q13 0 22.5 9.5t9.5 22.5zm1536 768v192q0 13-9.5 22.5t-22.5 9.5h-1344q-13 0-22.5-9.5t-9.5-22.5v-192q0-13 9.5-22.5t22.5-9.5h1344q13 0 22.5 9.5t9.5 22.5zm0-384v192q0 13-9.5 22.5t-22.5 9.5h-1344q-13 0-22.5-9.5t-9.5-22.5v-192q0-13 9.5-22.5t22.5-9.5h1344q13 0 22.5 9.5t9.5 22.5zm0-384v192q0 13-9.5 22.5t-22.5 9.5h-1344q-13 0-22.5-9.5t-9.5-22.5v-192q0-13 9.5-22.5t22.5-9.5h1344q13 0 22.5 9.5t9.5 22.5z"
    />
  </symbol>
  <symbol viewBox="0 0 2048 2048" id="icon-caret-square-o-down">
    <title>caret-square-o-down</title>
    <path d="M1401 803q18 35-5 66l-320 448q-19 27-52 27t-52-27l-320-448q-23-31-5-66 17-35 57-35h640q40 0 57 35zm135 701v-960q0-13-9.5-22.5t-22.5-9.5h-960q-13 0-22.5 9.5t-9.5 22.5v960q0 13 9.5 22.5t22.5 9.5h960q13 0 22.5-9.5t9.5-22.5zm256-960v960q0 119-84.5 203.5t-203.5 84.5h-960q-119 0-203.5-84.5t-84.5-203.5v-960q0-119 84.5-203.5t203.5-84.5h960q119 0 203.5 84.5t84.5 203.5z"
    />
  </symbol>
  <symbol viewBox="0 0 2048 2048" id="icon-caret-square-o-left">
    <title>caret-square-o-left</title>
    <path d="M1280 704v640q0 26-19 45t-45 19q-20 0-37-12l-448-320q-27-19-27-52t27-52l448-320q17-12 37-12 26 0 45 19t19 45zm256 800v-960q0-13-9.5-22.5t-22.5-9.5h-960q-13 0-22.5 9.5t-9.5 22.5v960q0 13 9.5 22.5t22.5 9.5h960q13 0 22.5-9.5t9.5-22.5zm256-960v960q0 119-84.5 203.5t-203.5 84.5h-960q-119 0-203.5-84.5t-84.5-203.5v-960q0-119 84.5-203.5t203.5-84.5h960q119 0 203.5 84.5t84.5 203.5z"
    />
  </symbol>
  <symbol viewBox="0 0 2048 2048" id="icon-caret-square-o-right">
    <title>caret-square-o-right</title>
    <path d="M1344 1024q0 33-27 52l-448 320q-31 23-66 5-35-17-35-57v-640q0-40 35-57 35-18 66 5l448 320q27 19 27 52zm192 480v-960q0-14-9-23t-23-9h-960q-14 0-23 9t-9 23v960q0 14 9 23t23 9h960q14 0 23-9t9-23zm256-960v960q0 119-84.5 203.5t-203.5 84.5h-960q-119 0-203.5-84.5t-84.5-203.5v-960q0-119 84.5-203.5t203.5-84.5h960q119 0 203.5 84.5t84.5 203.5z"
    />
  </symbol>
  <symbol viewBox="0 0 2048 2048" id="icon-caret-square-o-up">
    <title>caret-square-o-up</title>
    <path d="M1401 1245q-17 35-57 35h-640q-40 0-57-35-18-35 5-66l320-448q19-27 52-27t52 27l320 448q23 31 5 66zm135 259v-960q0-13-9.5-22.5t-22.5-9.5h-960q-13 0-22.5 9.5t-9.5 22.5v960q0 13 9.5 22.5t22.5 9.5h960q13 0 22.5-9.5t9.5-22.5zm256-960v960q0 119-84.5 203.5t-203.5 84.5h-960q-119 0-203.5-84.5t-84.5-203.5v-960q0-119 84.5-203.5t203.5-84.5h960q119 0 203.5 84.5t84.5 203.5z"
    />
  </symbol>
  <symbol viewBox="0 0 2048 2048" id="icon-plus-square">
    <title>plus-square</title>
    <path d="M1536 1088v-128q0-26-19-45t-45-19h-320v-320q0-26-19-45t-45-19h-128q-26 0-45 19t-19 45v320h-320q-26 0-45 19t-19 45v128q0 26 19 45t45 19h320v320q0 26 19 45t45 19h128q26 0 45-19t19-45v-320h320q26 0 45-19t19-45zm256-544v960q0 119-84.5 203.5t-203.5 84.5h-960q-119 0-203.5-84.5t-84.5-203.5v-960q0-119 84.5-203.5t203.5-84.5h960q119 0 203.5 84.5t84.5 203.5z"
    />
  </symbol>
  <symbol viewBox="0 0 2048 2048" id="icon-upload">
    <title>upload</title>
    <path d="M1472 1600q0-26-19-45t-45-19-45 19-19 45 19 45 45 19 45-19 19-45zm256 0q0-26-19-45t-45-19-45 19-19 45 19 45 45 19 45-19 19-45zm128-224v320q0 40-28 68t-68 28h-1472q-40 0-68-28t-28-68v-320q0-40 28-68t68-28h427q21 56 70.5 92t110.5 36h256q61 0 110.5-36t70.5-92h427q40 0 68 28t28 68zm-325-648q-17 40-59 40h-256v448q0 26-19 45t-45 19h-256q-26 0-45-19t-19-45v-448h-256q-42 0-59-40-17-39 14-69l448-448q18-19 45-19t45 19l448 448q31 30 14 69z"
    />
  </symbol>
  <symbol viewBox="0 0 2048 2048" id="icon-exclamation-triangle">
    <title>exclamation-triangle</title>
    <path d="M1152 1503v-190q0-14-9.5-23.5t-22.5-9.5h-192q-13 0-22.5 9.5t-9.5 23.5v190q0 14 9.5 23.5t22.5 9.5h192q13 0 22.5-9.5t9.5-23.5zm-2-374l18-459q0-12-10-19-13-11-24-11h-220q-11 0-24 11-10 7-10 21l17 457q0 10 10 16.5t24 6.5h185q14 0 23.5-6.5t10.5-16.5zm-14-934l768 1408q35 63-2 126-17 29-46.5 46t-63.5 17h-1536q-34 0-63.5-17t-46.5-46q-37-63-2-126l768-1408q17-31 47-49t65-18 65 18 47 49z"
    />
  </symbol>
  <symbol viewBox="0 0 2048 2048" id="icon-exclamation">
    <title>exclamation</title>
    <path d="M1216 1376v224q0 26-19 45t-45 19h-256q-26 0-45-19t-19-45v-224q0-26 19-45t45-19h256q26 0 45 19t19 45zm30-1056l-28 768q-1 26-20.5 45t-45.5 19h-256q-26 0-45.5-19t-20.5-45l-28-768q-1-26 17.5-45t44.5-19h320q26 0 44.5 19t17.5 45z"
    />
  </symbol>
  <symbol viewBox="0 0 2048 2048" id="icon-folder-o">
    <title>folder-o</title>
    <path d="M1728 1440v-704q0-40-28-68t-68-28h-704q-40 0-68-28t-28-68v-64q0-40-28-68t-68-28h-320q-40 0-68 28t-28 68v960q0 40 28 68t68 28h1216q40 0 68-28t28-68zm128-704v704q0 92-66 158t-158 66h-1216q-92 0-158-66t-66-158v-960q0-92 66-158t158-66h320q92 0 158 66t66 158v32h672q92 0 158 66t66 158z"
    />
  </symbol>
  <symbol viewBox="0 0 2048 2048" id="icon-folder-open-o">
    <title>folder-open-o</title>
    <path d="M1845 1059q0-35-53-35h-1088q-40 0-85.5 21.5t-71.5 52.5l-294 363q-18 24-18 40 0 35 53 35h1088q40 0 86-22t71-53l294-363q18-22 18-39zm-1141-163h768v-160q0-40-28-68t-68-28h-576q-40 0-68-28t-28-68v-64q0-40-28-68t-68-28h-320q-40 0-68 28t-28 68v853l256-315q44-53 116-87.5t140-34.5zm1269 163q0 62-46 120l-295 363q-43 53-116 87.5t-140 34.5h-1088q-92 0-158-66t-66-158v-960q0-92 66-158t158-66h320q92 0 158 66t66 158v32h544q92 0 158 66t66 158v160h192q54 0 99 24.5t67 70.5q15 32 15 68z"
    />
  </symbol>
  <symbol viewBox="0 0 2048 2048" id="icon-folder-open">
    <title>folder-open</title>
    <path d="M1943 1080q0 31-31 66l-336 396q-43 51-120.5 86.5t-143.5 35.5h-1088q-34 0-60.5-13t-26.5-43q0-31 31-66l336-396q43-51 120.5-86.5t143.5-35.5h1088q34 0 60.5 13t26.5 43zm-343-344v160h-832q-94 0-197 47.5t-164 119.5l-337 396-5 6q0-4-.5-12.5t-.5-12.5v-960q0-92 66-158t158-66h320q92 0 158 66t66 158v32h544q92 0 158 66t66 158z"
    />
  </symbol>
  <symbol viewBox="0 0 2048 2048" id="icon-folder">
    <title>folder</title>
    <path d="M1856 736v704q0 92-66 158t-158 66h-1216q-92 0-158-66t-66-158v-960q0-92 66-158t158-66h320q92 0 158 66t66 158v32h672q92 0 158 66t66 158z" />
  </symbol>
  <symbol viewBox="0 0 2048 2048" id="icon-sort-alpha-asc">
    <title>sort-alpha-asc</title>
    <path d="M1383 536h177l-72-218-12-47q-2-16-2-20h-4l-3 20q0 1-3.5 18t-7.5 29zm-455 1032q0 12-10 24l-319 319q-10 9-23 9-12 0-23-9l-320-320q-15-16-7-35 8-20 30-20h192v-1376q0-14 9-23t23-9h192q14 0 23 9t9 23v1376h192q14 0 23 9t9 23zm836 119v233h-584v-90l369-529q12-18 21-27l11-9v-3q-2 0-6.5.5t-7.5.5q-12 3-30 3h-232v115h-120v-229h567v89l-369 530q-6 8-21 26l-11 11v2l14-2q9-2 30-2h248v-119h121zm89-897v106h-288v-106h75l-47-144h-243l-47 144h75v106h-287v-106h70l230-662h162l230 662h70z"
    />
  </symbol>
  <symbol viewBox="0 0 2048 2048" id="icon-sort-alpha-desc">
    <title>sort-alpha-desc</title>
    <path d="M1383 1560h177l-72-218-12-47q-2-16-2-20h-4l-3 20q0 1-3.5 18t-7.5 29zm-455 8q0 12-10 24l-319 319q-10 9-23 9-12 0-23-9l-320-320q-15-16-7-35 8-20 30-20h192v-1376q0-14 9-23t23-9h192q14 0 23 9t9 23v1376h192q14 0 23 9t9 23zm925 246v106h-288v-106h75l-47-144h-243l-47 144h75v106h-287v-106h70l230-662h162l230 662h70zm-89-1151v233h-584v-90l369-529q12-18 21-27l11-9v-3q-2 0-6.5.5t-7.5.5q-12 3-30 3h-232v115h-120v-229h567v89l-369 530q-6 8-21 26l-11 10v3l14-3q9-1 30-1h248v-119h121z"
    />
  </symbol>
  <symbol viewBox="0 0 2048 2048" id="icon-sort-amount-asc">
    <title>sort-amount-asc</title>
    <path d="M864 1568q0 12-10 24l-319 319q-10 9-23 9-12 0-23-9l-320-320q-15-16-7-35 8-20 30-20h192v-1376q0-14 9-23t23-9h192q14 0 23 9t9 23v1376h192q14 0 23 9t9 23zm1056 128v192q0 14-9 23t-23 9h-832q-14 0-23-9t-9-23v-192q0-14 9-23t23-9h832q14 0 23 9t9 23zm-192-512v192q0 14-9 23t-23 9h-640q-14 0-23-9t-9-23v-192q0-14 9-23t23-9h640q14 0 23 9t9 23zm-192-512v192q0 14-9 23t-23 9h-448q-14 0-23-9t-9-23v-192q0-14 9-23t23-9h448q14 0 23 9t9 23zm-192-512v192q0 14-9 23t-23 9h-256q-14 0-23-9t-9-23v-192q0-14 9-23t23-9h256q14 0 23 9t9 23z"
    />
  </symbol>
  <symbol viewBox="0 0 2048 2048" id="icon-sort-amount-desc">
    <title>sort-amount-desc</title>
    <path d="M1344 1696v192q0 14-9 23t-23 9h-256q-14 0-23-9t-9-23v-192q0-14 9-23t23-9h256q14 0 23 9t9 23zm-480-128q0 12-10 24l-319 319q-10 9-23 9-12 0-23-9l-320-320q-15-16-7-35 8-20 30-20h192v-1376q0-14 9-23t23-9h192q14 0 23 9t9 23v1376h192q14 0 23 9t9 23zm672-384v192q0 14-9 23t-23 9h-448q-14 0-23-9t-9-23v-192q0-14 9-23t23-9h448q14 0 23 9t9 23zm192-512v192q0 14-9 23t-23 9h-640q-14 0-23-9t-9-23v-192q0-14 9-23t23-9h640q14 0 23 9t9 23zm192-512v192q0 14-9 23t-23 9h-832q-14 0-23-9t-9-23v-192q0-14 9-23t23-9h832q14 0 23 9t9 23z"
    />
  </symbol>
  <symbol viewBox="0 0 2048 2048" id="icon-sort-asc">
    <title>sort-asc</title>
    <path d="M1536 832q0 26-19 45t-45 19h-896q-26 0-45-19t-19-45 19-45l448-448q19-19 45-19t45 19l448 448q19 19 19 45z" />
  </symbol>
  <symbol viewBox="0 0 2048 2048" id="icon-sort-desc">
    <title>sort-desc</title>
    <path d="M1536 1216q0 26-19 45l-448 448q-19 19-45 19t-45-19l-448-448q-19-19-19-45t19-45 45-19h896q26 0 45 19t19 45z" />
  </symbol>
  <symbol viewBox="0 0 2048 2048" id="icon-sort-numeric-asc">
    <title>sort-numeric-asc</title>
    <path d="M1602 1441q0-63-44-116t-103-53q-52 0-83 37t-31 94 36.5 95 104.5 38q50 0 85-27t35-68zm-610 127q0 12-10 24l-319 319q-10 9-23 9-12 0-23-9l-320-320q-15-16-7-35 8-20 30-20h192v-1376q0-14 9-23t23-9h192q14 0 23 9t9 23v1376h192q14 0 23 9t9 23zm750-69q0 62-13 121.5t-41 114-68 95.5-98.5 65.5-127.5 24.5q-62 0-108-16-24-8-42-15l39-113q15 7 31 11 37 13 75 13 84 0 134.5-58.5t66.5-145.5h-2q-21 23-61.5 37t-84.5 14q-106 0-173-71.5t-67-172.5q0-105 72-178t181-73q123 0 205 94.5t82 252.5zm-30-717v114h-469v-114h167v-432q0-7 .5-19t.5-17v-16h-2l-7 12q-8 13-26 31l-62 58-82-86 192-185h123v654h165z"
    />
  </symbol>
  <symbol viewBox="0 0 2048 2048" id="icon-sort-numeric-desc">
    <title>sort-numeric-desc</title>
    <path d="M1602 417q0-63-44-116t-103-53q-52 0-83 37t-31 94 36.5 95 104.5 38q50 0 85-27t35-68zm-610 1151q0 12-10 24l-319 319q-10 9-23 9-12 0-23-9l-320-320q-15-16-7-35 8-20 30-20h192v-1376q0-14 9-23t23-9h192q14 0 23 9t9 23v1376h192q14 0 23 9t9 23zm720 238v114h-469v-114h167v-432q0-7 .5-19t.5-17v-16h-2l-7 12q-8 13-26 31l-62 58-82-86 192-185h123v654h165zm30-1331q0 62-13 121.5t-41 114-68 95.5-98.5 65.5-127.5 24.5q-62 0-108-16-24-8-42-15l39-113q15 7 31 11 37 13 75 13 84 0 134.5-58.5t66.5-145.5h-2q-21 23-61.5 37t-84.5 14q-106 0-173-71.5t-67-172.5q0-105 72-178t181-73q123 0 205 94.5t82 252.5z"
    />
  </symbol>
  <symbol viewBox="0 0 2048 2048" id="icon-sort">
    <title>sort</title>
    <path id="asc" d="M1069,339c-12.7-12.7-27.7-19-45-19c-17.3,0-32.3,6.3-45,19L531,787c-12.7,12.7-19,27.7-19,45s6.3,32.3,19,45s27.7,19,45,19
      h896c17.3,0,32.3-6.3,45-19s19-27.7,19-45s-6.3-32.3-19-45L1069,339z"/>
    <path id="desc" d="M1472,1152H576c-17.3,0-32.3,6.3-45,19s-19,27.7-19,45s6.3,32.3,19,45l448,448c12.7,12.7,27.7,19,45,19
      c17.3,0,32.3-6.3,45-19l448-448c12.7-12.7,19-27.7,19-45s-6.3-32.3-19-45S1489.3,1152,1472,1152z"/>
  </symbol>
  <symbol viewBox="0 0 2048 2048" id="icon-square-o">
    <title>square-o</title>
    <path d="M1440 384h-832q-66 0-113 47t-47 113v832q0 66 47 113t113 47h832q66 0 113-47t47-113v-832q0-66-47-113t-113-47zm288 160v832q0 119-84.5 203.5t-203.5 84.5h-832q-119 0-203.5-84.5t-84.5-203.5v-832q0-119 84.5-203.5t203.5-84.5h832q119 0 203.5 84.5t84.5 203.5z"
    />
  </symbol>
  <symbol viewBox="0 0 2048 2048" id="icon-square">
    <title>square</title>
    <path d="M1792 544v960q0 119-84.5 203.5t-203.5 84.5h-960q-119 0-203.5-84.5t-84.5-203.5v-960q0-119 84.5-203.5t203.5-84.5h960q119 0 203.5 84.5t84.5 203.5z" />
  </symbol>
</svg>
