<svg id="Layer_1" data-name="Layer 1" xmlns="http://www.w3.org/2000/svg" viewBox="0 0 1792 1408">
  <title>masonry</title>
  <g>
    <path d="M1184,768H224q-40,0-68,28t-28,68v704q0,40,28,68t68,28h960q40,0,68-28t28-68V864q0-40-28-68T1184,768Z" transform="translate(-128 -256)"/>
    <path d="M224,640H544q40,0,68-28t28-68V352q0-40-28-68t-68-28H224q-40,0-68,28t-28,68V544q0,40,28,68T224,640Z" transform="translate(-128 -256)"/>
    <path d="M1824,1280H1504q-40,0-68,28t-28,68v192q0,40,28,68t68,28h320q40,0,68-28t28-68V1376q0-40-28-68T1824,1280Z" transform="translate(-128 -256)"/>
    <path d="M1892,284q-28-28-68-28H1504q-40,0-68,28t-28,68v704q0,40,28,68t68,28h320q40,0,68-28t28-68V352Q1920,312,1892,284Z" transform="translate(-128 -256)"/>
    <path d="M1184,256H864q-40,0-68,28t-28,68V544q0,40,28,68t68,28h320q40,0,68-28t28-68V352q0-40-28-68T1184,256Z" transform="translate(-128 -256)"/>
  </g>
</svg>
